<svg version="1.2" xmlns="http://www.w3.org/2000/svg" viewBox="0 0 348 97" width="348" height="97">
	<title>kaikas-svg</title>
	<defs>
		<clipPath clipPathUnits="userSpaceOnUse" id="cp1">
			<path d="m12 4h90v90h-90z"/>
		</clipPath>
		<linearGradient id="g1" x1="57" y1="4" x2="57" y2="93.2" gradientUnits="userSpaceOnUse">
			<stop offset="0" stop-color="#a6a5a5" stop-opacity=".7"/>
			<stop offset="1" stop-color="#727272" stop-opacity=".7"/>
		</linearGradient>
	</defs>
	<style>
		.s0 { fill: #6d7369 } 
		.s1 { mix-blend-mode: overlay;fill: url(#g1) } 
		.s2 { fill: #585858 } 
	</style>
	<g id="Clip-Path" clip-path="url(#cp1)">
		<g id="Layer">
			<path id="Layer" fill-rule="evenodd" class="s0" d="m28.2 83.6l28.8-28.9 28.8 28.9c-8.1 6.7-18.3 10.4-28.8 10.4-10.5 0-20.7-3.7-28.8-10.4zm-6.1-6.2c-7.1-8.8-10.7-19.9-10-31.3l35.2-35.2zm40.6-28.4l28.8-28.9c6.8 8.1 10.5 18.3 10.5 28.9 0 10.5-3.7 20.7-10.5 28.8zm-4.1-45c10 0.4 19.6 4 27.2 10.4l-50.1 50.2z"/>
			<path id="Layer" fill-rule="evenodd" class="s1" d="m28.2 83.6l28.8-28.9 28.8 28.9c-8.1 6.7-18.3 10.4-28.8 10.4-10.5 0-20.7-3.7-28.8-10.4zm-6.1-6.2c-7.1-8.8-10.7-19.9-10-31.3l35.2-35.2zm40.6-28.4l28.8-28.9c6.8 8.1 10.5 18.3 10.5 28.9 0 10.5-3.7 20.7-10.5 28.8zm-4.1-45c10 0.4 19.6 4 27.2 10.4l-50.1 50.2z"/>
		</g>
	</g>
	<path id="Layer" fill-rule="evenodd" class="s2" d="m325.6 39.3c9.2 0 14.6 5.7 15 9.8v1.3h-5.8v-1.1c-0.2-2.9-5.1-5.2-9-5.1-5.7 0.1-8.3 2.5-8.3 4.4 0 2.8 5.1 3.7 10.1 5.4 5.6 1.9 13.3 4.2 13.3 11.6 0 5.6-6.5 10.2-13.9 10.2h-0.9c-3.8 0-9.6-1.2-12.2-3.4-2.5-2-3.7-3.6-3.9-7.7v-1.2h5.8v1.2c0.2 3.9 5.9 6 10.2 6h0.5c4.2 0 8.4-2.3 8.4-5.2 0-3-3.7-4.6-9-6.4-5.7-1.9-14.5-3.5-14.4-10.1 0.1-2.2 1.5-5.1 4.2-6.9 2.4-1.6 6.4-2.8 9.9-2.8zm-40.3 0.1c9 0 14.5 4.9 14.5 12.7v17.8h5.2v5.2h-3.9c-4.6 0-6.4-2.4-6.9-5.6-1.7 3.8-5.4 6.2-11.9 6.2-8 0-13.2-4.1-13.2-10.6 0-6.3 5-10 16.6-10h8.2v-2.4c0-5.1-3.3-8.2-8.7-8.2-3.7 0-7.9 2.2-9.2 8.3h-5.8c1.1-8.2 6.9-13.4 15.1-13.4zm-97.9 0c9 0 14.5 4.9 14.5 12.7v17.8h5.2v5.2h-3.9c-4.6 0-6.4-2.4-6.9-5.6-1.7 3.8-5.4 6.2-11.9 6.2-8 0-13.2-4.1-13.2-10.6 0-6.3 5-10 16.6-10h8.2v-2.4c0-5.1-3.3-8.2-8.7-8.2-3.7 0-7.9 2.2-9.2 8.3h-5.8c1.1-8.2 6.9-13.4 15.1-13.4zm77.6 0l-17.9 17.3 18 18.4h-7.5l-15.3-15c-1.5-1.9-1.3-4.7 0.4-6.4l14.9-14.3zm-98.6-13.5l-21.4 21.6 22 27.6h-7.5l-19.3-24.2c-1.5-1.9-1.4-4.7 0.4-6.5l18.4-18.5zm53 13.5v30.5h5.2v5.2h-3.1c-4.9 0-8.1-3.5-8.1-8.9v-26.8zm18.3-13.5v49.2h-6v-49.2zm-102.1 0v49.2h-5.9v-49.2zm158.2 33.2h-8.2c-7.1 0-10.3 1.9-10.3 5.2v1.4c0 3.6 3.1 5.5 8 5.5 6.1 0 10.5-2.9 10.5-6.4zm-97.9 0h-8.2c-7.1 0-10.3 1.9-10.3 5.2v1.4c0 3.6 3.1 5.5 8 5.5 6.1 0 10.5-2.8 10.5-6.4zm23.5-28.9v5.7h-6v-5.7z"/>
</svg>